Coordinates
version=1
nRows=13
nColumns=36
inDegrees=yes

Units are S.I. units (second, meters, Newtons, ...)
If the header above contains a line with 'inDegrees', this indicates whether rotational values are in degrees (yes) or radians (no).

endheader
time	pelvis_tilt	pelvis_list	pelvis_rotation	pelvis_tx	pelvis_ty	pelvis_tz	hip_flexion_r	hip_adduction_r	hip_rotation_r	knee_angle_r	knee_angle_r_beta	ankle_angle_r	subtalar_angle_r	mtp_angle_r	hip_flexion_l	hip_adduction_l	hip_rotation_l	knee_angle_l	knee_angle_l_beta	ankle_angle_l	subtalar_angle_l	mtp_angle_l	lumbar_extension	lumbar_bending	lumbar_rotation	arm_flex_r	arm_add_r	arm_rot_r	elbow_flex_r	pro_sup_r	arm_flex_l	arm_add_l	arm_rot_l	elbow_flex_l	pro_sup_l
     14.83333330	      4.76833663	     -3.36469546	      2.91075026	      0.76238888	      1.04169541	      0.90203673	     -4.78929590	      5.98856188	     -9.18971960	      9.83774092	      0.17170097	     14.75300714	      0.11699536	     -7.49999987	     21.32815907	     -7.14701484	      0.72835439	     53.58350461	      0.93520858	      2.96447751	    -12.04491113	     -7.49999987	    -16.56572635	      7.10858640	      4.99013687	     10.06189985	    -13.39305251	     -5.22006769	     30.83361639	     72.97050201	     -1.14928114	     -4.40155632	     -7.11714251	     14.30031757	     69.26045683
     14.85000000	      4.44757842	     -2.85451503	      2.95671929	      0.76148875	      1.04285860	      0.90272660	     -5.81640014	      5.53052271	     -9.28025485	      8.75256656	      0.15276110	     14.53134479	      0.54375729	     -7.49999987	     22.52781887	     -6.54306927	     -0.16943997	     49.46027589	      0.86324466	      3.76445525	    -10.86682591	     -7.49999987	    -16.62723409	      6.63613840	      5.41080084	     10.46682474	    -13.79717055	     -4.60520930	     32.12261662	     72.77943678	     -1.93211014	     -4.37842508	     -7.48466920	     14.42341440	     68.86571344
     14.86666670	      3.97549614	     -2.40969762	      2.87339960	      0.75924606	      1.04084003	      0.90302807	     -6.64724723	      5.12281298	     -9.03107389	      7.84143645	      0.13685888	     14.40341031	      0.90116973	     -7.49999987	     23.78761626	     -5.91177877	     -1.02932804	     45.14799325	      0.78798113	      4.96649362	     -9.29322774	     -7.49999987	    -16.51632251	      6.19739629	      5.88090932	     10.78589109	    -14.27704171	     -3.58943265	     33.61708453	     72.60555211	     -2.76496200	     -4.41304720	     -7.74812484	     14.71987852	     68.51210799
     14.88333330	      3.56810472	     -1.95168779	      3.06092654	      0.75642156	      1.03777695	      0.90147667	     -7.52049838	      4.70459308	     -9.02922541	      7.13463617	      0.12452289	     14.48068376	      1.26464326	     -7.49999987	     24.86046053	     -5.07631510	     -1.48481997	     40.67241265	      0.70986752	      6.09186330	     -7.73771115	     -7.49999987	    -16.36770238	      5.80553126	      6.04400203	     11.14504512	    -14.63306387	     -2.92566288	     34.65167237	     72.38054198	     -3.59568296	     -4.51625415	     -7.72279255	     15.19896919	     68.26358216
     14.90000000	      3.07896389	     -1.53048651	      3.20040548	      0.75415294	      1.03493817	      0.89953778	     -8.38509723	      4.30382036	     -8.89595364	      6.41841721	      0.11202251	     14.62420355	      1.41952988	     -7.49999987	     25.68293575	     -4.29869045	     -1.85528829	     35.86279792	      0.62592390	      6.64536692	     -6.19341223	     -7.49999987	    -15.91169595	      5.48634517	      5.99439724	     11.59204867	    -14.95573335	     -1.87590959	     35.58360089	     72.33724541	     -4.60809092	     -4.54841353	     -7.35342400	     15.63223964	     68.14543899
     14.91666670	      2.60423384	     -1.21581414	      3.39331612	      0.75328236	      1.03270996	      0.89815568	     -9.39364933	      4.02802056	     -8.85188220	      5.56028773	      0.09704533	     14.78355165	      1.59880204	     -7.49999987	     26.18441124	     -3.62320735	     -2.02017236	     30.84216852	      0.53829739	      6.65364496	     -4.70049214	     -7.49999987	    -15.31152050	      5.31095229	      5.91500561	     11.90254766	    -15.21124697	     -1.12583580	     36.20459651	     72.15486101	     -5.56475961	     -4.48626396	     -6.91864873	     15.88044846	     67.92045232
     14.93333330	      2.13839568	     -1.01763854	      3.62358343	      0.75420399	      1.03053373	      0.89713098	    -10.51485147	      3.89097064	     -8.97748837	      4.53662730	      0.07917908	     14.91384199	      2.06721102	     -7.49999987	     26.47249845	     -3.01703999	     -1.85263337	     25.82039260	      0.45065087	      6.53420109	     -3.10777959	     -7.49999987	    -14.72024008	      5.26050177	      5.36120036	     12.42004869	    -15.45175277	      0.46687407	     36.65495550	     72.63262015	     -6.80882679	     -4.52328219	     -5.58694074	     16.37698219	     67.98854844
     14.95000000	      1.62273814	     -0.92544973	      3.77117694	      0.75571660	      1.02835551	      0.89651837	    -11.52225695	      3.85182494	     -9.00534149	      3.56952231	      0.06229992	     14.95611661	      2.49839979	     -7.49999987	     26.71092673	     -2.52534046	     -1.40192267	     21.10841909	      0.36841141	      6.62907021	     -1.46017316	     -7.49999987	    -14.03890041	      5.27295439	      5.21000749	     12.62469867	    -15.50116400	      0.88754655	     37.14815143	     72.34206286	     -7.73206195	     -4.49716108	     -5.18569630	     16.56740980	     67.55161716
     14.96666670	      1.06677983	     -0.90676245	      3.82619111	      0.75657580	      1.02674152	      0.89657822	    -12.30304289	      3.87000444	     -8.58220596	      2.83401299	      0.04946286	     14.97454421	      2.44346581	     -7.49999987	     26.97075799	     -2.18355920	     -0.69140345	     17.04142471	      0.29742897	      6.96480820	      0.00438956	     -7.49999987	    -13.33147378	      5.24033852	      5.39964993	     12.61361518	    -15.55128445	      1.36917810	     37.55161765	     71.70294185	     -8.51664206	     -4.60230048	     -4.77605936	     16.83817850	     66.95201662
     14.98333330	      0.77395473	     -0.83101445	      4.19152789	      0.75619104	      1.02576708	      0.89645538	    -13.14851143	      3.86459164	     -9.08598386	      2.43828801	      0.04255615	     15.67391034	      3.40198355	     -7.49999987	     27.09207841	     -1.75156196	      0.43882352	     13.99941494	      0.24433588	      7.35622825	      0.95087171	     -7.49999987	    -12.87673015	      5.23657982	      4.47100312	     13.38280309	    -15.28997136	      3.24608115	     37.17230466	     72.17770598	     -9.56653337	     -4.96642354	     -3.54670150	     17.23763284	     66.61327515
     15.00000000	      0.56950614	     -0.77897780	      4.44956163	      0.75472288	      1.02460864	      0.89557662	    -13.89225048	      3.84790027	     -8.98549619	      2.34288129	      0.04089099	     16.35425066	      3.57899847	     -7.49999987	     27.27704483	     -1.49442380	      1.29989589	     12.23137420	      0.21347775	      7.68877396	      1.56156730	     -7.49999987	    -12.52736202	      5.15499912	      4.06271094	     13.80254835	    -15.01052024	      4.40611459	     36.79769490	     72.29027307	    -10.21106631	     -5.25672038	     -3.47391733	     17.52023650	     65.85027707
     15.01666670	      0.53251350	     -0.66491314	      4.73625306	      0.75362123	      1.02280492	      0.89330224	    -14.67423543	      3.72419829	     -8.91346732	      2.55873915	      0.04465842	     17.10185045	      3.58904595	     -7.49999987	     27.39447763	     -1.22143454	      1.83030418	     11.84699009	      0.20676898	      7.78906775	      1.86894977	     -7.49999987	    -12.30828405	      5.01400902	      3.63715153	     14.10880017	    -14.59967540	      5.18895437	     36.22139019	     72.34498681	    -10.57496797	     -5.53275893	     -3.63496241	     17.51630590	     65.42479385
     15.03333330	      0.61318478	     -0.54231626	      4.94777804	      0.75444932	      1.02081894	      0.89027112	    -15.46455839	      3.49860442	     -8.75677482	      3.09466549	      0.05401210	     17.64973331	      3.27327620	     -7.49999987	     27.41534824	     -1.00001702	      1.96751901	     12.74264902	      0.22240118	      7.42252517	      1.86932712	     -7.49999987	    -12.17595146	      4.87527579	      3.42107213	     13.95042513	    -14.18726460	      5.30532185	     35.90648300	     72.46823884	    -10.76351369	     -5.77029122	     -3.75623062	     17.51975762	     65.41912804
